name C:\Users\u0101727\Documents\MyRepositories\upper-imu-dc\Results\main_tracking\Case_19\kinematics.mot
datacolumns 10
datarows 28
range 2.07000000 2.34000000
endheader 
time	clav_prot	clav_elev	scapula_abduction	scapula_elevation	scapula_upward_rot	scapula_winging	plane_elv	shoulder_elv	axial_rot	
          2.07000000	        -32.44632128	         13.25198918	         -1.12435641	          0.88429538	         58.29464564	         -8.58426242	         78.39181170	         83.80055995	        -33.44848744	
          2.08000000	        -32.70646511	         13.23597157	         -1.19176534	          0.84109403	         58.73563408	         -8.69163753	         78.09127706	         83.95867909	        -33.17650528	
          2.09000000	        -32.95933368	         13.21242653	         -1.24992304	          0.79470883	         59.16909621	         -8.79524485	         77.79106300	         84.11319676	        -32.91402882	
          2.10000000	        -33.20392787	         13.18101652	         -1.29851121	          0.74497564	         59.59334488	         -8.89451202	         77.48949346	         84.26648704	        -32.68172385	
          2.11000000	        -33.43980850	         13.14135338	         -1.33770151	          0.69162421	         60.00724355	         -8.98908718	         77.18556482	         84.42058522	        -32.49591579	
          2.12000000	        -33.66668986	         13.09276570	         -1.36790550	          0.63416963	         60.40956959	         -9.07865108	         76.87853789	         84.57758545	        -32.37119280	
          2.13000000	        -33.88430076	         13.03439744	         -1.38966092	          0.57199184	         60.79890671	         -9.16287368	         76.56779686	         84.73966577	        -32.32005201	
          2.14000000	        -34.09266453	         12.96568099	         -1.40380023	          0.50462697	         61.17421701	         -9.24158588	         76.25315442	         84.90862524	        -32.34856957	
          2.15000000	        -34.29259332	         12.88695475	         -1.41177219	          0.43214440	         61.53572381	         -9.31506189	         75.93538211	         85.08518858	        -32.45014353	
          2.16000000	        -34.48605560	         12.79992567	         -1.41587201	          0.35544070	         61.88556936	         -9.38423936	         75.61657400	         85.26847850	        -32.60083075	
          2.17000000	        -34.67615260	         12.70775412	         -1.41918550	          0.27631827	         62.22784834	         -9.45073936	         75.30002671	         85.45596887	        -32.75939519	
          2.18000000	        -34.86660484	         12.61465891	         -1.42516642	          0.19727885	         62.56787600	         -9.51662517	         74.98952257	         85.64402192	        -32.87348419	
          2.19000000	        -35.06087984	         12.52512348	         -1.43693624	          0.12106646	         62.91089621	         -9.58395296	         74.68819146	         85.82884435	        -32.89069303	
          2.20000000	        -35.26132721	         12.44299690	         -1.45659204	          0.05012366	         63.26076724	         -9.65429352	         74.39740893	         86.00747211	        -32.77065750	
          2.21000000	        -35.46871346	         12.37082975	         -1.48484151	         -0.01383827	         63.61918833	         -9.72843069	         74.11621620	         86.17839831	        -32.49373148	
          2.22000000	        -35.68229472	         12.30960281	         -1.52107686	         -0.07005083	         63.98567434	         -9.80632352	         73.84144432	         86.34170393	        -32.06390996	
          2.23000000	        -35.90027040	         12.25879823	         -1.56375403	         -0.11869434	         64.35808522	         -9.88727346	         73.56836093	         86.49880800	        -31.50651054	
          2.24000000	        -36.12034837	         12.21669297	         -1.61085760	         -0.16075368	         64.73336512	         -9.97017826	         73.29150431	         86.65204494	        -30.86270772	
          2.25000000	        -36.34022215	         12.18078466	         -1.66029776	         -0.19776837	         65.10822694	        -10.05378076	         73.00542751	         86.80422310	        -30.18304603	
          2.26000000	        -36.55786932	         12.14827935	         -1.71017310	         -0.23152058	         65.47964805	        -10.13686319	         72.70521048	         86.95824091	        -29.52132534	
          2.27000000	        -36.77166445	         12.11655596	         -1.75889027	         -0.26372164	         65.84514182	        -10.21836767	         72.38672083	         87.11678379	        -28.92951428	
          2.28000000	        -36.98034618	         12.08351414	         -1.80516215	         -0.29576666	         66.20282567	        -10.29744116	         72.04668328	         87.28210192	        -28.45384353	
          2.29000000	        -37.18289766	         12.04774762	         -1.84793232	         -0.32860331	         66.55132887	        -10.37341824	         71.68265411	         87.45587156	        -28.13197296	
          2.30000000	        -37.37840088	         12.00854197	         -1.88627744	         -0.36272109	         66.88960366	        -10.44576608	         71.29298874	         87.63913417	        -27.99099511	
          2.31000000	        -37.56592599	         11.96574403	         -1.91933683	         -0.39823257	         67.21672599	        -10.51402412	         70.87687265	         87.83228379	        -28.04588195	
          2.32000000	        -37.74453471	         11.91958782	         -1.94635878	         -0.43499357	         67.53177516	        -10.57778693	         70.43449561	         88.03507228	        -28.29799055	
          2.33000000	        -37.91345388	         11.87054700	         -1.96693776	         -0.47271640	         67.83384626	        -10.63676853	         69.96741680	         88.24661580	        -28.73343542	
          2.34000000	        -38.07242612	         11.81925460	         -1.98145543	         -0.51104734	         68.12220955	        -10.69096002	         69.47908279	         88.46539610	        -29.32162536	
